<?xml version="1.0" encoding="UTF-8"?>
<svg id="BG" xmlns="http://www.w3.org/2000/svg" version="1.1" viewBox="0 0 1000 1000">
  <!-- Generator: Adobe Illustrator 30.3.0, SVG Export Plug-In . SVG Version: 2.1.3 Build 182)  -->
  <defs>
    <style>
      .st0 {
        fill: #fff;
      }
    </style>
  </defs>
  <path class="st0" d="M397.4,497.9c6-10.5,13.7-17.1,18.7-20.7-12.6-2.1-28.3-3.5-46.2-2.5-25.9,1.4-47.1,7.3-62.2,12.8,22,37.7,44,75.4,66.1,113.1-3.8,16.8-14.5,41.4-22.8,59.1-2.3,4.9,3.8,9.4,7.8,5.7,45.9-42.3,64.5-79.9,64.5-79.9l-32.2-72.1c1.1-4.4,3-9.8,6.3-15.5ZM485.7,416.3l14.3,38.6,14.3-38.6c2.6-7.1,8.2-12.7,15.3-15.3l38.6-14.3-38.6-14.3c-7.1-2.6-12.7-8.2-15.3-15.3l-14.3-38.6-14.3,38.6c-2.6,7.1-8.2,12.7-15.3,15.3l-38.6,14.3,38.6,14.3c7.1,2.6,12.7,8.2,15.3,15.3ZM500,515.5c-5.5-4.8-12.5-10.1-21.1-15.2-10-5.8-19.3-9.6-27-12.1,12.3,17.9,24.5,35.8,36.8,53.7,5.4,7.9,17.1,7.9,22.6,0,12.3-17.9,24.5-35.8,36.8-53.7-7.7,2.5-17,6.3-27,12.1-8.6,5-15.6,10.4-21.1,15.2ZM757,341.1c-197.3,68.1-257,132.5-257,132.5,0,0-59.7-64.4-257-132.5-8.8-3-16.6,6.6-11.8,14.6l19.9,32.8c45.8,9.2,85.2,25.8,85.2,25.8-12.5-2.6-26.5-4.7-41.7-6.1-12.1-1.1-23.5-1.5-34-1.6,12.1,20.7,24.2,41.4,36.2,62,17.6-5.3,40.1-10,66.4-10.4,64.3-1.1,113.2,23.6,136.9,38,23.7-14.3,72.6-39.1,136.9-38,26.2.5,48.7,5.1,66.4,10.4,12.1-20.7,24.2-41.4,36.2-62-10.5,0-21.9.5-34,1.6-15.2,1.4-29.2,3.6-41.7,6.1,0,0,39.4-16.7,85.2-25.8l19.9-32.8c4.8-8-3-17.6-11.8-14.6ZM630.1,474.7c-18-1-33.7.4-46.2,2.5,5,3.6,12.7,10.2,18.7,20.7,3.3,5.8,5.2,11.2,6.3,15.5l-32.2,72.1s18.6,37.6,64.5,79.9c4,3.7,10.1-.8,7.8-5.7-8.3-17.6-19-42.3-22.8-59.1,22-37.7,44-75.4,66.1-113.1-15.1-5.5-36.3-11.4-62.2-12.8Z"/>
</svg>